<?xml version="1.0" encoding="UTF-8" standalone="no"?>
<!-- Created with Inkscape (http://www.inkscape.org/) -->

<svg
   version="1.1"
   id="svg2"
   width="226.772"
   height="343.93732"
   viewBox="0 0 226.772 343.93732"
   sodipodi:docname="10587746_4471205.ai"
   xmlns:inkscape="http://www.inkscape.org/namespaces/inkscape"
   xmlns:sodipodi="http://sodipodi.sourceforge.net/DTD/sodipodi-0.dtd"
   xmlns="http://www.w3.org/2000/svg"
   xmlns:svg="http://www.w3.org/2000/svg">
  <defs
     id="defs6">
    <clipPath
       clipPathUnits="userSpaceOnUse"
       id="clipPath24">
      <path
         d="M 0,257.953 H 170.079 V 0 H 0 Z"
         id="path22" />
    </clipPath>
    <clipPath
       clipPathUnits="userSpaceOnUse"
       id="clipPath44">
      <path
         d="m 52.539,146.512 h 65.001 v 65 H 52.539 Z"
         id="path42" />
    </clipPath>
    <clipPath
       clipPathUnits="userSpaceOnUse"
       id="clipPath70">
      <path
         d="M 0,257.953 H 170.079 V 0 H 0 Z"
         id="path68" />
    </clipPath>
    <clipPath
       clipPathUnits="userSpaceOnUse"
       id="clipPath90">
      <path
         d="M 0,257.953 H 170.079 V 0 H 0 Z"
         id="path88" />
    </clipPath>
  </defs>
  <sodipodi:namedview
     id="namedview4"
     pagecolor="#ffffff"
     bordercolor="#000000"
     borderopacity="0.25"
     inkscape:showpageshadow="2"
     inkscape:pageopacity="0.0"
     inkscape:pagecheckerboard="0"
     inkscape:deskcolor="#d1d1d1" />
  <g
     id="g8"
     inkscape:groupmode="layer"
     inkscape:label="10587746_4471205"
     transform="matrix(1.3333333,0,0,-1.3333333,0,343.93733)">
    <path
       d="M 0.055,0 H 170.078 V 257.953 H 0.055 Z"
       style="fill:#ffffff;fill-opacity:1;fill-rule:nonzero;stroke:none"
       id="path10" />
    <path
       d="m 47.062,146.512 h -2.065 v 65 h 2.065 z"
       style="fill:#eeeeee;fill-opacity:1;fill-rule:nonzero;stroke:none"
       id="path12" />
    <g
       id="g14"
       transform="translate(0.0549,5.5179)">
      <path
         d="M 0,0 V -5.518 H 170.023 V 166.086 Z"
         style="fill:#eeeeee;fill-opacity:1;fill-rule:nonzero;stroke:none"
         id="path16" />
    </g>
    <g
       id="g18">
      <g
         id="g20"
         clip-path="url(#clipPath24)">
        <g
           id="g26"
           transform="translate(141.7408,233.9688)">
          <path
             d="m 0,0 h -101.14 l -0.69,23.984 H 28.338 L 6.864,2.798 C 5.029,1.004 2.565,0 0,0"
             style="fill:#5981d7;fill-opacity:1;fill-rule:nonzero;stroke:none"
             id="path28" />
        </g>
        <g
           id="g30"
           transform="translate(51.127,39.2218)">
          <path
             d="m 0,0 -31.128,-30.443 c -3.516,-3.433 -7.98,-5.653 -12.768,-6.409 h -7.176 V 0 Z"
             style="fill:#5981d7;fill-opacity:1;fill-rule:nonzero;stroke:none"
             id="path32" />
        </g>
        <g
           id="g34"
           transform="translate(96.1197,216.2979)">
          <path
             d="M 0,0 -96.064,-0.471 V 41.655 H 51.117 L 14.7,5.993 C 10.771,2.151 5.495,0 0,0"
             style="fill:#002340;fill-opacity:1;fill-rule:nonzero;stroke:none"
             id="path36" />
        </g>
      </g>
    </g>
    <g
       id="g38">
      <g
         id="g40"
         clip-path="url(#clipPath44)">
        <path
           d="M 143.015,137.521 H 31.237 v 99.89 h 111.778 z"
           style="fill:#c5c5c5;fill-opacity:1;fill-rule:nonzero;stroke:none"
           id="path46" />
           <image xlink:href="{{idImage}}" x="31.237" y="137.521" height="99.89" width="111.778" preserveAspectRatio="none"></image>
      </g>
    </g>
    <text
       xml:space="preserve"
       transform="matrix(1,0,0,-1,53.957,133.7988)"
       style="font-variant:normal;font-weight:600;font-stretch:normal;font-size:7.5498px;font-family:'Poppins SemiBold';-inkscape-font-specification:Poppins-SemiBold;writing-mode:lr-tb;fill:#5981d7;fill-opacity:1;fill-rule:nonzero;stroke:none"
       id="text50"><tspan
         x="0 4.6506767 9.4825487 14.586214 19.274639 22.407806 25.405077 27.050934 33.762707 38.866371 41.86364 46.876709 51.565132 58.080612"
         y="0"
         sodipodi:role="line"
         id="tspan48">{{name}}</tspan></text>
    
    <g
       id="g64">
      <g
         id="g66"
         clip-path="url(#clipPath70)">
        <path
           d="m 62.628,108.874 h 45.743 v -0.529 H 62.628 Z"
           style="fill:#000000;fill-opacity:1;fill-rule:nonzero;stroke:none"
           id="path72" />
      </g>
    </g>
    <text
       xml:space="preserve"
       transform="matrix(1,0,0,-1,50.9136,92.9961)"
       style="font-variant:normal;font-weight:300;font-stretch:normal;font-size:5.3932px;font-family:'Poppins Light';-inkscape-font-specification:Poppins-Light;writing-mode:lr-tb;fill:#002340;fill-opacity:1;fill-rule:nonzero;stroke:none"
       id="text82"><tspan
         x="0 1.2026836 5.0426421 6.4448738 10.11225 13.585471 24.803328 25.709385 27.111616 30.385288 33.658962 36.932632 40.206306 43.479977 46.753651 50.027325"
         y="0"
         sodipodi:role="line"
         id="tspan74">Email : {{email}}</tspan><tspan
         x="0 3.8399584 8.1059799 11.293361 25.315681 26.221739 29.026203 33.534916 38.043633 40.033722 43.87368 47.713642 49.703732 52.783249 55.469063 58.942284"
         y="10.2309"
         sodipodi:role="line"
         id="tspan76">Phone : {{phone}}</tspan><tspan
         x="0 2.6858137 8.1922712 11.821895 13.024578 14.227262 24.042885 24.948944 27.753407 30.703487 34.176708 37.542065 39.537548 40.939781 46.446239 50.075863 51.278545 52.481228 53.883461 57.513084 60.986305 64.357056 67.091408 68.493637 71.91832 75.28907 77.284554"
         y="20.461802"
         sodipodi:role="line"
         id="tspan78">Address : {{address}}</tspan></text>
    <g
       id="g84">
      <g
         id="g86"
         clip-path="url(#clipPath90)">
        <g
           id="g92"
           transform="translate(70.9058,39.3712)">
          <path
             d="M 0,0 H 99.173 V -39.371 H -48.045 l 34.316,33.775 C -10.06,-2.009 -5.131,0 0,0"
             style="fill:#002340;fill-opacity:1;fill-rule:nonzero;stroke:none"
             id="path94" />
        </g>
      </g>
    </g>
  </g>
</svg>
